<svg xmlns="http://www.w3.org/2000/svg" viewBox="0 0 1661 200" width="1661" height="200" role="img" aria-label="INIKA ENGLISH GAME" xmlns:c2pa="http://c2pa.org/manifest"><metadata><c2pa:manifest>AAAWgmp1bWIAAAAeanVtZGMycGEAEQAQgAAAqgA4m3EDYzJwYQAAABZcanVtYgAAAEdqdW1kYzJtYQARABCAAACqADibcQN1cm46YzJwYTpiMjkyZDEyNi01MWM3LTRkNzUtOTgzOC1lNWMzZDE1MzcxNjIAAAADl2p1bWIAAAApanVtZGMyYXMAEQAQgAAAqgA4m3EDYzJwYS5hc3NlcnRpb25zAAAAALxqdW1iAAAARGp1bWRjYm9yABEAEIAAAKoAOJtxE2MycGEuaW5ncmVkaWVudC52MwAAAAAYYzJzaBFASckGp+/QKperDfkFQfYAAABwY2JvcqNpZGM6Zm9ybWF0bWltYWdlL3N2Zyt4bWxqaW5zdGFuY2VJRHgseG1wOmlpZDo4YzUyM2QwZi03YjhmLTRkZGItYTcyNS1hZWI0OGFmYjI2MThscmVsYXRpb25zaGlwaHBhcmVudE9mAAAB4mp1bWIAAABBanVtZGNib3IAEQAQgAAAqgA4m3ETYzJwYS5hY3Rpb25zLnYyAAAAABhjMnNojjeqDfCRHwLLYR3NnkIezwAAAZljYm9yomdhY3Rpb25zgqJmYWN0aW9ua2MycGEub3BlbmVkanBhcmFtZXRlcnOha2luZ3JlZGllbnRzgaJjdXJseC1zZWxmI2p1bWJmPWMycGEuYXNzZXJ0aW9ucy9jMnBhLmluZ3JlZGllbnQudjNkaGFzaFgg1Ij5latcFwgA+1H9YgIowZVimHNBIyFJQEb9iJPaGy2kZmFjdGlvbngdY29tLmFudGhyb3BpYy5jbGF1ZGUucHJvdmlkZWRqcGFyYW1ldGVyc6F4H2NvbS5hbnRocm9waWMub3JpZ2luLWNvbmZpZGVuY2VndW5rbm93bmtkZXNjcmlwdGlvbnhmQ2xhdWRlIHByb3ZpZGVkIHRoaXMgZmlsZSBhdCB0aGUgcmVxdWVzdCBvZiBhIHVzZXIgYW5kIG1heSBoYXZlIGNyZWF0ZWQgb3IgbW9kaWZpZWQgdGhlIGZpbGUgY29udGVudHMubXNvZnR3YXJlQWdlbnShZG5hbWVmQ2xhdWRlcmFsbEFjdGlvbnNJbmNsdWRlZPUAAADIanVtYgAAAEBqdW1kY2JvcgARABCAAACqADibcRNjMnBhLmhhc2guZGF0YQAAAAAYYzJzaAOpIXq7PLrFw4V1c7fTjZgAAACAY2JvcqVjYWxnZnNoYTI1NmNwYWRNAAAAAAAAAAAAAAAAAGRoYXNoWCBdkNihD9QXOX0T2cAn2Pso9uOqVXx8gIJJa3FbQ/RiamRuYW1lbmp1bWJmIG1hbmlmZXN0amV4Y2x1c2lvbnOBomVzdGFydBjDZmxlbmd0aBkeBAAAAj5qdW1iAAAAJ2p1bWRjMmNsABEAEIAAAKoAOJtxA2MycGEuY2xhaW0udjIAAAACD2Nib3KlY2FsZ2ZzaGEyNTZpc2lnbmF0dXJleE1zZWxmI2p1bWJmPS9jMnBhL3VybjpjMnBhOmIyOTJkMTI2LTUxYzctNGQ3NS05ODM4LWU1YzNkMTUzNzE2Mi9jMnBhLnNpZ25hdHVyZWppbnN0YW5jZUlEeCx4bXA6aWlkOmM4YjA0OTYyLWRhZTQtNDk4NC1hMDgwLTNmZDc5ZmQ3NzBkMnJjcmVhdGVkX2Fzc2VydGlvbnODomN1cmx4LXNlbGYjanVtYmY9YzJwYS5hc3NlcnRpb25zL2MycGEuaW5ncmVkaWVudC52M2RoYXNoWCDUiPmVq1wXCAD7Uf1iAijBlWKYc0EjIUlARv2Ik9obLaJjdXJseCpzZWxmI2p1bWJmPWMycGEuYXNzZXJ0aW9ucy9jMnBhLmFjdGlvbnMudjJkaGFzaFggJJGmyKaMIYelVcGAgiv2ogfeL9P1MfEDuJ3SjemYjRiiY3VybHgpc2VsZiNqdW1iZj1jMnBhLmFzc2VydGlvbnMvYzJwYS5oYXNoLmRhdGFkaGFzaFgggW/r95XhiDyW3A18AlF7BC5FAM+XX7cMNo3COpxbknF0Y2xhaW1fZ2VuZXJhdG9yX2luZm+jZG5hbWVvQW50aHJvcGljIEZpbGVzZ3ZlcnNpb25lMS4wLjBrc3BlY1ZlcnNpb25lMi40LjAAABA4anVtYgAAAChqdW1kYzJjcwARABCAAACqADibcQNjMnBhLnNpZ25hdHVyZQAAABAIY2JvctKEWQISogEmGCFZAgowggIGMIIBjaADAgECAhRA5aAK7sI50L64g/oGQgU9Z1UTADAKBggqhkjOPQQDAzBJMRcwFQYDVQQKEw5BbnRocm9waWMsIFBCQzEuMCwGA1UEAxMlQW50aHJvcGljIENvbnRlbnQgQ3JlZGVudGlhbHMgUm9vdCBDQTAeFw0yNjA4MDcxODQzNTZaFw0yODA4MDYxOTQzNTZaMEQxFzAVBgNVBAoTDkFudGhyb3BpYywgUEJDMSkwJwYDVQQDEyBBbnRocm9waWMgQ2xhdWRlIENvbnRlbnQgU2lnbmluZzBZMBMGByqGSM49AgEGCCqGSM49AwEHA0IABJh6CmvLUBgFFNU0vUKlOVtE6djd17L5SuwX0LemFisBM3dkd/3cyjxFA3Qo5S46fX0/ihY0VZ7mfb9KF703t5OjWDBWMA4GA1UdDwEB/wQEAwIHgDAVBgNVHSUEDjAMBgorBgEEAYPoXgIBMAwGA1UdEwEB/wQCMAAwHwYDVR0jBBgwFoAUzlHiBIFOZFsj+OPEz5o+nMHXXMIwCgYIKoZIzj0EAwMDZwAwZAIwMXMdFJ4BetLLVY7ORuE9noqbbAZOZn/aArXyTwFAZfKrPzxF2vPoJNf1+UCdg1XGAjBwX1zd9WGqYkqmL5SFqw1QySjr1zJfpJM9+1rdDwSPLMOPOjKuiXjoU/pUUeG9RwmhY3BhZFkNngAAAAAAAAAAAAAAAAAAAAAAAAAAAAAAAAAAAAAAAAAAAAAAAAAAAAAAAAAAAAAAAAAAAAAAAAAAAAAAAAAAAAAAAAAAAAAAAAAAAAAAAAAAAAAAAAAAAAAAAAAAAAAAAAAAAAAAAAAAAAAAAAAAAAAAAAAAAAAAAAAAAAAAAAAAAAAAAAAAAAAAAAAAAAAAAAAAAAAAAAAAAAAAAAAAAAAAAAAAAAAAAAAAAAAAAAAAAAAAAAAAAAAAAAAAAAAAAAAAAAAAAAAAAAAAAAAAAAAAAAAAAAAAAAAAAAAAAAAAAAAAAAAAAAAAAAAAAAAAAAAAAAAAAAAAAAAAAAAAAAAAAAAAAAAAAAAAAAAAAAAAAAAAAAAAAAAAAAAAAAAAAAAAAAAAAAAAAAAAAAAAAAAAAAAAAAAAAAAAAAAAAAAAAAAAAAAAAAAAAAAAAAAAAAAAAAAAAAAAAAAAAAAAAAAAAAAAAAAAAAAAAAAAAAAAAAAAAAAAAAAAAAAAAAAAAAAAAAAAAAAAAAAAAAAAAAAAAAAAAAAAAAAAAAAAAAAAAAAAAAAAAAAAAAAAAAAAAAAAAAAAAAAAAAAAAAAAAAAAAAAAAAAAAAAAAAAAAAAAAAAAAAAAAAAAAAAAAAAAAAAAAAAAAAAAAAAAAAAAAAAAAAAAAAAAAAAAAAAAAAAAAAAAAAAAAAAAAAAAAAAAAAAAAAAAAAAAAAAAAAAAAAAAAAAAAAAAAAAAAAAAAAAAAAAAAAAAAAAAAAAAAAAAAAAAAAAAAAAAAAAAAAAAAAAAAAAAAAAAAAAAAAAAAAAAAAAAAAAAAAAAAAAAAAAAAAAAAAAAAAAAAAAAAAAAAAAAAAAAAAAAAAAAAAAAAAAAAAAAAAAAAAAAAAAAAAAAAAAAAAAAAAAAAAAAAAAAAAAAAAAAAAAAAAAAAAAAAAAAAAAAAAAAAAAAAAAAAAAAAAAAAAAAAAAAAAAAAAAAAAAAAAAAAAAAAAAAAAAAAAAAAAAAAAAAAAAAAAAAAAAAAAAAAAAAAAAAAAAAAAAAAAAAAAAAAAAAAAAAAAAAAAAAAAAAAAAAAAAAAAAAAAAAAAAAAAAAAAAAAAAAAAAAAAAAAAAAAAAAAAAAAAAAAAAAAAAAAAAAAAAAAAAAAAAAAAAAAAAAAAAAAAAAAAAAAAAAAAAAAAAAAAAAAAAAAAAAAAAAAAAAAAAAAAAAAAAAAAAAAAAAAAAAAAAAAAAAAAAAAAAAAAAAAAAAAAAAAAAAAAAAAAAAAAAAAAAAAAAAAAAAAAAAAAAAAAAAAAAAAAAAAAAAAAAAAAAAAAAAAAAAAAAAAAAAAAAAAAAAAAAAAAAAAAAAAAAAAAAAAAAAAAAAAAAAAAAAAAAAAAAAAAAAAAAAAAAAAAAAAAAAAAAAAAAAAAAAAAAAAAAAAAAAAAAAAAAAAAAAAAAAAAAAAAAAAAAAAAAAAAAAAAAAAAAAAAAAAAAAAAAAAAAAAAAAAAAAAAAAAAAAAAAAAAAAAAAAAAAAAAAAAAAAAAAAAAAAAAAAAAAAAAAAAAAAAAAAAAAAAAAAAAAAAAAAAAAAAAAAAAAAAAAAAAAAAAAAAAAAAAAAAAAAAAAAAAAAAAAAAAAAAAAAAAAAAAAAAAAAAAAAAAAAAAAAAAAAAAAAAAAAAAAAAAAAAAAAAAAAAAAAAAAAAAAAAAAAAAAAAAAAAAAAAAAAAAAAAAAAAAAAAAAAAAAAAAAAAAAAAAAAAAAAAAAAAAAAAAAAAAAAAAAAAAAAAAAAAAAAAAAAAAAAAAAAAAAAAAAAAAAAAAAAAAAAAAAAAAAAAAAAAAAAAAAAAAAAAAAAAAAAAAAAAAAAAAAAAAAAAAAAAAAAAAAAAAAAAAAAAAAAAAAAAAAAAAAAAAAAAAAAAAAAAAAAAAAAAAAAAAAAAAAAAAAAAAAAAAAAAAAAAAAAAAAAAAAAAAAAAAAAAAAAAAAAAAAAAAAAAAAAAAAAAAAAAAAAAAAAAAAAAAAAAAAAAAAAAAAAAAAAAAAAAAAAAAAAAAAAAAAAAAAAAAAAAAAAAAAAAAAAAAAAAAAAAAAAAAAAAAAAAAAAAAAAAAAAAAAAAAAAAAAAAAAAAAAAAAAAAAAAAAAAAAAAAAAAAAAAAAAAAAAAAAAAAAAAAAAAAAAAAAAAAAAAAAAAAAAAAAAAAAAAAAAAAAAAAAAAAAAAAAAAAAAAAAAAAAAAAAAAAAAAAAAAAAAAAAAAAAAAAAAAAAAAAAAAAAAAAAAAAAAAAAAAAAAAAAAAAAAAAAAAAAAAAAAAAAAAAAAAAAAAAAAAAAAAAAAAAAAAAAAAAAAAAAAAAAAAAAAAAAAAAAAAAAAAAAAAAAAAAAAAAAAAAAAAAAAAAAAAAAAAAAAAAAAAAAAAAAAAAAAAAAAAAAAAAAAAAAAAAAAAAAAAAAAAAAAAAAAAAAAAAAAAAAAAAAAAAAAAAAAAAAAAAAAAAAAAAAAAAAAAAAAAAAAAAAAAAAAAAAAAAAAAAAAAAAAAAAAAAAAAAAAAAAAAAAAAAAAAAAAAAAAAAAAAAAAAAAAAAAAAAAAAAAAAAAAAAAAAAAAAAAAAAAAAAAAAAAAAAAAAAAAAAAAAAAAAAAAAAAAAAAAAAAAAAAAAAAAAAAAAAAAAAAAAAAAAAAAAAAAAAAAAAAAAAAAAAAAAAAAAAAAAAAAAAAAAAAAAAAAAAAAAAAAAAAAAAAAAAAAAAAAAAAAAAAAAAAAAAAAAAAAAAAAAAAAAAAAAAAAAAAAAAAAAAAAAAAAAAAAAAAAAAAAAAAAAAAAAAAAAAAAAAAAAAAAAAAAAAAAAAAAAAAAAAAAAAAAAAAAAAAAAAAAAAAAAAAAAAAAAAAAAAAAAAAAAAAAAAAAAAAAAAAAAAAAAAAAAAAAAAAAAAAAAAAAAAAAAAAAAAAAAAAAAAAAAAAAAAAAAAAAAAAAAAAAAAAAAAAAAAAAAAAAAAAAAAAAAAAAAAAAAAAAAAAAAAAAAAAAAAAAAAAAAAAAAAAAAAAAAAAAAAAAAAAAAAAAAAAAAAAAAAAAAAAAAAAAAAAAAAAAAAAAAAAAAAAAAAAAAAAAAAAAAAAAAAAAAAAAAAAAAAAAAAAAAAAAAAAAAAAAAAAAAAAAAAAAAAAAAAAAAAAAAAAAAAAAAAAAAAAAAAAAAAAAAAAAAAAAAAAAAAAAAAAAAAAAAAAAAAAAAAAAAAAAAAAAAAAAAAAAAAAAAAAAAAAAAAAAAAAAAAAAAAAAAAAAAAAAAAAAAAAAAAAAAAAAAAAAAAAAAAAAAAAAAAAAAAAAAAAAAAAAAAAAAAAAAAAAAAAAAAAAAAAAAAAAAAAAAAAAAAAAAAAAAAAAAAAAAAAAAAAAAAAAAAAAAAAAAAAAAAAAAAAAAAAAAAAAAAAAAAAAAAAAAAAAAAAAAAAAAAAAAAAAAAAAAAAAAAAAAAAAAAAAAAAAAAAAAAAAAAAAAAAAAAAAAAAAAAAAAAAAAAAAAAAAAAAAAAAAAAAAAAAAAAAAAAAAAAAAAAAAAAAAAAAAAAAAAAAAAAAAAAAAAAAAAAAAAAAAAAAAAAAAAAAAAAAAAAAAAAAAAAAAAAAAAAAAAAAAAAAAAAAAAAAAAAAAAAAAAAAAAAAAAAAAAAAAAAAAAAAAAAAAAAAAAAAAAAAAAAAAAAAAAAAAAAAAAAAAAAAAAAAAAAAAAAAAAAAAAAAAAAAAAAAAAAAAAAAAAAAAAAAAAAAAAAAAAAAAAAAAAAAAAAAAAAAAAAAAAAAAAAAAAAAAAAAAAAAAAAAAAAAAAAAAAAAAAAAAAAAAAAAAAAAAAAAAAAAAAAAAAAAAAAAAAAAAAAAAAAAAAAAAAAAAAAAAAAAAAAAAAAAAAAAAAAAAAAAAAAAAAAAAAAAAAAAAAAAAAAAAAAAAAAAAAAAAAAAAAAAAAAAAAAAAAAAAAAAAAAAAAAAAAAAAAAAAAAAAAAAAAAAAAAAAAAAAAAAAAAAAAAAAAAAAAAAAAAAAAAAAAAAAAAAAAAAAAAAAAAAAAAAAAAAAAAAAAAAAAAAAAAAAAAAAAAAAAAAAAAAAAAAAAAAAAAAAAAAAAAAAAAAAAAAAAAAAAAAAAAAAAAAAAAAAAAAAAAAAAAAAAAAAAAAAAAAAAAAAAAAAAAAAAAAAAAAAAAAAAAAAAAAAAAAAAAAAAAAAAAAAAAAAAAAAAAAAAAAAAAAAAAAAAAAAAAAAAAAAAAAAAAAAAAAAAAAAAAAAAAAAAAAAAAAAAAAAAAAAAAAAAAAAAAAAAAAAAAAAAAAAAAAAAAAAAAAAAAAAAAAAAAAAAAAAAAAAAAAAAAAAAAAAAAAAAAAAAAAAAAAAAAAAAAAAAAAAAAAAAAAAAAAAAAAAAAAAAAAAAAAAAAAAAAAAAAAAAAAAAAAAAAAAAAAAAAAAAAAAAAAAAAAAAAAAAAAAAAAAAAAAAAAAAAAAAAAAAAAAAAAAAAAAAAAAAAAAAAAAAAAAAAAAAAAAAAAAAAAAAAAAAAAAAAAAAAAAAAAAAAAAAAAAAAAAAAAAAAAAAAAAAAAAAAAAAAAAAAAAAAAAAAAAAAAAAAAAAAAAAAAAAAAAAAAAAAAAAAAAAAAAAAAAAAAAAAAAAAAAAAAAAAAAAAAAAAAAAAPZYQPpiRT+N+pbSqcTyvvqpx0ZUxKFT8LmAvYVsnxNFcuG9iyVLGparuktoCNF6j2j8yx2XLQa1cX25vXzo4oP0rA8=</c2pa:manifest></metadata>
<g transform="translate(100,100)">
<path d="M0.00,-86.00 L9.71,-85.45 L17.50,-98.46 L37.98,-92.51 L37.59,-77.35 L50.55,-69.58 L58.08,-63.43 L72.03,-69.37 L85.10,-52.52 L75.88,-40.48 L81.79,-26.58 L84.27,-17.18 L99.05,-13.78 L99.72,7.53 L85.18,11.85 L81.79,26.58 L78.27,35.64 L88.23,47.07 L76.24,64.71 L61.95,59.65 L50.55,69.58 L42.37,74.84 L43.71,89.94 L23.65,97.16 L15.05,84.67 L0.00,86.00 L-9.71,85.45 L-17.50,98.46 L-37.98,92.51 L-37.59,77.35 L-50.55,69.58 L-58.08,63.43 L-72.03,69.37 L-85.10,52.52 L-75.88,40.48 L-81.79,26.58 L-84.27,17.18 L-99.05,13.78 L-99.72,-7.53 L-85.18,-11.85 L-81.79,-26.58 L-78.27,-35.64 L-88.23,-47.07 L-76.24,-64.71 L-61.95,-59.65 L-50.55,-69.58 L-42.37,-74.84 L-43.71,-89.94 L-23.65,-97.16 L-15.05,-84.67 Z" fill="#1B4F8F"/>
<circle r="76" fill="none" stroke="#FFFFFF" stroke-width="2.5"/>
<path d="M0,0 a2.2,2.2 0 0 1 4.4,0 a4.4,4.4 0 0 1 -8.8,0 a6.6,6.6 0 0 1 13.2,0" transform="translate(0.00,-63.00) rotate(0)" fill="none" stroke="#FFFFFF" stroke-width="2.6" stroke-linecap="round" stroke-linejoin="round"/>
<path d="M-7,6 L-7,-6 L5,-6 L5,2 L-1,2" transform="translate(44.55,-44.55) rotate(45)" fill="none" stroke="#FFFFFF" stroke-width="2.6" stroke-linecap="round" stroke-linejoin="round"/>
<path d="M0,0 a2.2,2.2 0 0 1 4.4,0 a4.4,4.4 0 0 1 -8.8,0 a6.6,6.6 0 0 1 13.2,0" transform="translate(63.00,0.00) rotate(90)" fill="none" stroke="#FFFFFF" stroke-width="2.6" stroke-linecap="round" stroke-linejoin="round"/>
<path d="M-7,6 L-7,-6 L5,-6 L5,2 L-1,2" transform="translate(44.55,44.55) rotate(135)" fill="none" stroke="#FFFFFF" stroke-width="2.6" stroke-linecap="round" stroke-linejoin="round"/>
<path d="M0,0 a2.2,2.2 0 0 1 4.4,0 a4.4,4.4 0 0 1 -8.8,0 a6.6,6.6 0 0 1 13.2,0" transform="translate(0.00,63.00) rotate(180)" fill="none" stroke="#FFFFFF" stroke-width="2.6" stroke-linecap="round" stroke-linejoin="round"/>
<path d="M-7,6 L-7,-6 L5,-6 L5,2 L-1,2" transform="translate(-44.55,44.55) rotate(225)" fill="none" stroke="#FFFFFF" stroke-width="2.6" stroke-linecap="round" stroke-linejoin="round"/>
<path d="M0,0 a2.2,2.2 0 0 1 4.4,0 a4.4,4.4 0 0 1 -8.8,0 a6.6,6.6 0 0 1 13.2,0" transform="translate(-63.00,0.00) rotate(270)" fill="none" stroke="#FFFFFF" stroke-width="2.6" stroke-linecap="round" stroke-linejoin="round"/>
<path d="M-7,6 L-7,-6 L5,-6 L5,2 L-1,2" transform="translate(-44.55,-44.55) rotate(315)" fill="none" stroke="#FFFFFF" stroke-width="2.6" stroke-linecap="round" stroke-linejoin="round"/>
<circle r="49" fill="#2F80D1"/>
<path d="M-9,-22 L9,-22 L0,-38 Z" fill="#1B4F8F" transform="rotate(45)"/>
<path d="M-9,-22 L9,-22 L0,-38 Z" fill="#1B4F8F" transform="rotate(135)"/>
<path d="M-9,-22 L9,-22 L0,-38 Z" fill="#1B4F8F" transform="rotate(225)"/>
<path d="M-9,-22 L9,-22 L0,-38 Z" fill="#1B4F8F" transform="rotate(315)"/>
<circle r="18" fill="#FFFFFF" stroke="#1B4F8F" stroke-width="3"/>
</g>
<path d="M0,0 H22 V100 H0 Z" fill="#1B4F8F" fill-rule="evenodd" transform="translate(232.00,52.00) scale(0.96)"/>
<path d="M0,100 V0 H24 L62,62 V0 H84 V100 H62 L22,38 V100 Z" fill="#1B4F8F" fill-rule="evenodd" transform="translate(266.56,52.00) scale(0.96)"/>
<path d="M0,0 H22 V100 H0 Z" fill="#1B4F8F" fill-rule="evenodd" transform="translate(360.64,52.00) scale(0.96)"/>
<path d="M0,0 H22 V40 L56,0 H86 L46,48 L88,100 H58 L22,56 V100 H0 Z" fill="#1B4F8F" fill-rule="evenodd" transform="translate(395.20,52.00) scale(0.96)"/>
<path d="M0,100 L36,0 H60 L96,100 H72 L65,80 H31 L24,100 Z M37,62 H59 L48,28 Z" fill="#1B4F8F" fill-rule="evenodd" transform="translate(493.12,52.00) scale(0.96)"/>
<path d="M503.1,158.0 H591.3 L581.3,170.0 H493.1 Z" fill="#2F80D1"/>
<path d="M503.1,158.0 H591.3 L581.3,170.0 H493.1 Z" fill="#F28C28"/>
<path d="M0,0 H70 V20 H22 V40 H62 V60 H22 V80 H70 V100 H0 Z" fill="#F28C28" fill-rule="evenodd" transform="translate(623.28,52.00) scale(0.96)"/>
<path d="M0,100 V0 H24 L62,62 V0 H84 V100 H62 L22,38 V100 Z" fill="#F28C28" fill-rule="evenodd" transform="translate(703.92,52.00) scale(0.96)"/>
<path d="M83,25 C76,14 64,9 49,9 C26,9 9,26 9,50 C9,74 26,91 49,91 C69,91 83,79 83,60 V54 H52" fill="none" stroke="#F28C28" stroke-width="18" transform="translate(798.00,52.00) scale(0.96)"/>
<path d="M0,0 H22 V80 H66 V100 H0 Z" fill="#F28C28" fill-rule="evenodd" transform="translate(899.76,52.00) scale(0.96)"/>
<path d="M0,0 H22 V100 H0 Z" fill="#F28C28" fill-rule="evenodd" transform="translate(976.56,52.00) scale(0.96)"/>
<path d="M77,24 C72,13 60,9 46,9 C28,9 16,17 16,30 C16,46 32,49 46,51 C62,53 80,56 80,72 C80,86 66,91 46,91 C30,91 18,85 12,74" fill="none" stroke="#F28C28" stroke-width="18" transform="translate(1011.12,52.00) scale(0.96)"/>
<path d="M0,0 H22 V40 H62 V0 H84 V100 H62 V60 H22 V100 H0 Z" fill="#F28C28" fill-rule="evenodd" transform="translate(1110.96,52.00) scale(0.96)"/>
<path d="M83,25 C76,14 64,9 49,9 C26,9 9,26 9,50 C9,74 26,91 49,91 C69,91 83,79 83,60 V54 H52" fill="none" stroke="#F28C28" stroke-width="18" transform="translate(1243.44,52.00) scale(0.96)"/>
<path d="M0,100 L36,0 H60 L96,100 H72 L65,80 H31 L24,100 Z M37,62 H59 L48,28 Z" fill="#F28C28" fill-rule="evenodd" transform="translate(1345.20,52.00) scale(0.96)"/>
<path d="M0,100 V0 H24 L52,54 L80,0 H104 V100 H82 V42 L58,86 H46 L22,42 V100 Z" fill="#F28C28" fill-rule="evenodd" transform="translate(1450.80,52.00) scale(0.96)"/>
<path d="M0,0 H70 V20 H22 V40 H62 V60 H22 V80 H70 V100 H0 Z" fill="#F28C28" fill-rule="evenodd" transform="translate(1564.08,52.00) scale(0.96)"/>
</svg>
